<svg width="64" height="64" viewBox="0 0 64 64" fill="none" xmlns="http://www.w3.org/2000/svg">
<path d="M32 58C45.8071 58 57 46.8071 57 33C57 19.1929 45.8071 8 32 8C18.1929 8 7 19.1929 7 33C7 46.8071 18.1929 58 32 58Z" stroke="#EE6C4D" stroke-width="4" stroke-linecap="round"/>
<path d="M25.5059 39.75C26.1641 40.8901 27.1109 41.8368 28.251 42.495C29.3911 43.1532 30.6844 43.4997 32.0009 43.4997C33.3173 43.4997 34.6106 43.1532 35.7507 42.495C36.8908 41.8368 37.8376 40.8901 38.4959 39.75" stroke="#EE6C4D" stroke-width="4" stroke-linecap="round"/>
<path d="M24.5 22.6875H22C20.4467 22.6875 19.1875 23.9467 19.1875 25.5C19.1875 27.0533 20.4467 28.3125 22 28.3125H24.5C26.0533 28.3125 27.3125 27.0533 27.3125 25.5C27.3125 23.9467 26.0533 22.6875 24.5 22.6875Z" fill="#EE6C4D" stroke="#EE6C4D" stroke-width="0.25" stroke-linecap="round"/>
<path d="M42 22.6875H39.5C37.9467 22.6875 36.6875 23.9467 36.6875 25.5C36.6875 27.0533 37.9467 28.3125 39.5 28.3125H42C43.5533 28.3125 44.8125 27.0533 44.8125 25.5C44.8125 23.9467 43.5533 22.6875 42 22.6875Z" fill="#EE6C4D" stroke="#EE6C4D" stroke-width="0.25" stroke-linecap="round"/>
</svg>
