<svg width="68" height="64" viewBox="0 0 68 64" fill="none" xmlns="http://www.w3.org/2000/svg">
<path d="M34 30.5C37.3152 30.5 40.4946 31.8169 42.8388 34.1611C45.183 36.5053 46.5 39.6848 46.5 43V58H41.5V43C41.5001 41.0869 40.7692 39.2462 39.4568 37.8543C38.1444 36.4625 36.3497 35.6247 34.44 35.5125L34 35.5C32.087 35.4999 30.2462 36.2308 28.8543 37.5432C27.4625 38.8556 26.6247 40.6502 26.5125 42.56L26.5 43V58H21.5V43C21.5 39.6848 22.817 36.5053 25.1612 34.1611C27.5054 31.8169 30.6848 30.5 34 30.5ZM17.75 38C18.45 38.0016 19.125 38.08 19.775 38.235C19.3491 39.5079 19.096 40.8322 19.0225 42.1725L19 43V43.215C18.7126 43.1123 18.4137 43.0452 18.11 43.015L17.75 43C16.8182 43 15.9197 43.3469 15.2297 43.9731C14.5397 44.5993 14.1076 45.46 14.0175 46.3875L14 46.75V58H9V46.75C9 44.4293 9.92187 42.2037 11.5628 40.5628C13.2038 38.9218 15.4294 38 17.75 38ZM50.25 38C52.5706 38 54.7962 38.9218 56.4372 40.5628C58.0781 42.2037 59 44.4293 59 46.75V58H54V46.75C54 45.8182 53.6531 44.9197 53.0269 44.2297C52.4007 43.5397 51.54 43.1075 50.6125 43.0175L50.25 43C49.81 43.0016 49.3933 43.0725 49 43.2125V43C49 41.335 48.73 39.735 48.23 38.24C48.875 38.0825 49.555 38 50.25 38ZM17.75 23C19.4076 23 20.9973 23.6585 22.1694 24.8306C23.3415 26.0027 24 27.5924 24 29.25C24 30.9076 23.3415 32.4973 22.1694 33.6694C20.9973 34.8415 19.4076 35.5 17.75 35.5C16.0924 35.5 14.5027 34.8415 13.3306 33.6694C12.1585 32.4973 11.5 30.9076 11.5 29.25C11.5 27.5924 12.1585 26.0027 13.3306 24.8306C14.5027 23.6585 16.0924 23 17.75 23ZM50.25 23C51.9076 23 53.4973 23.6585 54.6694 24.8306C55.8415 26.0027 56.5 27.5924 56.5 29.25C56.5 30.9076 55.8415 32.4973 54.6694 33.6694C53.4973 34.8415 51.9076 35.5 50.25 35.5C48.5924 35.5 47.0027 34.8415 45.8306 33.6694C44.6585 32.4973 44 30.9076 44 29.25C44 27.5924 44.6585 26.0027 45.8306 24.8306C47.0027 23.6585 48.5924 23 50.25 23ZM17.75 28C17.4185 28 17.1005 28.1317 16.8661 28.3661C16.6317 28.6005 16.5 28.9184 16.5 29.25C16.5 29.5815 16.6317 29.8994 16.8661 30.1339C17.1005 30.3683 17.4185 30.5 17.75 30.5C18.0815 30.5 18.3995 30.3683 18.6339 30.1339C18.8683 29.8994 19 29.5815 19 29.25C19 28.9184 18.8683 28.6005 18.6339 28.3661C18.3995 28.1317 18.0815 28 17.75 28ZM50.25 28C49.9185 28 49.6005 28.1317 49.3661 28.3661C49.1317 28.6005 49 28.9184 49 29.25C49 29.5815 49.1317 29.8994 49.3661 30.1339C49.6005 30.3683 49.9185 30.5 50.25 30.5C50.5815 30.5 50.8995 30.3683 51.1339 30.1339C51.3683 29.8994 51.5 29.5815 51.5 29.25C51.5 28.9184 51.3683 28.6005 51.1339 28.3661C50.8995 28.1317 50.5815 28 50.25 28ZM34 7.99997C36.6522 7.99997 39.1957 9.05354 41.0711 10.9289C42.9464 12.8043 44 15.3478 44 18C44 20.6521 42.9464 23.1957 41.0711 25.071C39.1957 26.9464 36.6522 28 34 28C31.3478 28 28.8043 26.9464 26.9289 25.071C25.0536 23.1957 24 20.6521 24 18C24 15.3478 25.0536 12.8043 26.9289 10.9289C28.8043 9.05354 31.3478 7.99997 34 7.99997ZM34 13C32.6739 13 31.4021 13.5268 30.4645 14.4644C29.5268 15.4021 29 16.6739 29 18C29 19.3261 29.5268 20.5978 30.4645 21.5355C31.4021 22.4732 32.6739 23 34 23C35.3261 23 36.5979 22.4732 37.5355 21.5355C38.4732 20.5978 39 19.3261 39 18C39 16.6739 38.4732 15.4021 37.5355 14.4644C36.5979 13.5268 35.3261 13 34 13Z" fill="#EE6C4D"/>
</svg>
