<svg width="64" height="64" viewBox="0 0 64 64" fill="none" xmlns="http://www.w3.org/2000/svg">
<path d="M61.7143 36.6677C60.437 36.6005 59.3613 37.6761 59.3613 38.9534C59.2269 45.7433 53.6471 51.1887 46.8571 51.1887C41.1429 51.1887 36.1681 47.2896 34.7563 41.7769C34.4874 40.8358 34.4202 39.8946 34.3529 38.9534C34.3529 38.8862 34.3529 38.819 34.3529 38.819V36.466C35.2269 36.1299 35.9664 35.6593 36.5042 34.987L44.1008 26.4492C45.2437 25.1719 45.5126 23.4912 44.8403 22.0122C44.0336 20.1971 41.9496 18.987 39.5966 18.987H24.3361C21.9832 18.987 19.8992 20.1971 19.0924 22.0122C18.4202 23.4912 18.6891 25.1719 19.8319 26.4492L27.4958 34.987C28.1008 35.6593 28.8403 36.1299 29.6471 36.466V38.6845V38.819C29.6471 38.8862 29.6471 38.9534 29.6471 38.9534C29.6471 39.8946 29.5126 40.8358 29.2437 41.7769C27.8319 47.3568 22.7899 51.1887 17.1429 51.1887C10.3529 51.1887 4.77311 45.6761 4.63866 38.9534C4.63866 37.6761 3.56302 36.6677 2.28571 36.6677C1.0084 36.6677 0 37.7433 0 39.0206C0.201681 48.298 7.86555 55.8274 17.1429 55.8274C23.395 55.8274 28.9748 52.466 32 47.2223C35.0252 52.466 40.605 55.8274 46.8571 55.8274C56.1344 55.8274 63.7983 48.298 64 39.0206C64 37.7433 62.9916 36.7349 61.7143 36.6677ZM32 32.2307C31.5294 32.2307 31.126 32.0963 30.9916 31.8946L23.6639 23.6929C23.8655 23.6257 24.0672 23.5585 24.4034 23.5585H39.6639C40 23.5585 40.2017 23.6257 40.4034 23.6929L33.0084 31.9618C32.8739 32.0963 32.4706 32.2307 32 32.2307Z" fill="#EE6C4D"/>
<path d="M51.9668 19.4499C54.5286 19.4499 56.6054 17.3732 56.6054 14.8113C56.6054 12.2494 54.5286 10.1726 51.9668 10.1726C49.4049 10.1726 47.3281 12.2494 47.3281 14.8113C47.3281 17.3732 49.4049 19.4499 51.9668 19.4499Z" fill="#EE6C4D"/>
<path d="M12.0332 19.4499C14.595 19.4499 16.6718 17.3732 16.6718 14.8113C16.6718 12.2494 14.595 10.1726 12.0332 10.1726C9.47133 10.1726 7.39453 12.2494 7.39453 14.8113C7.39453 17.3732 9.47133 19.4499 12.0332 19.4499Z" fill="#EE6C4D"/>
<path d="M48.0671 46.0718C49.0695 46.0718 49.8822 45.2591 49.8822 44.2567C49.8822 43.2542 49.0695 42.4415 48.0671 42.4415C47.0646 42.4415 46.252 43.2542 46.252 44.2567C46.252 45.2591 47.0646 46.0718 48.0671 46.0718Z" fill="#EE6C4D"/>
<path d="M52.6393 39.4835C53.6418 39.4835 54.4545 38.6709 54.4545 37.6684C54.4545 36.6659 53.6418 35.8533 52.6393 35.8533C51.6369 35.8533 50.8242 36.6659 50.8242 37.6684C50.8242 38.6709 51.6369 39.4835 52.6393 39.4835Z" fill="#EE6C4D"/>
<path d="M43.4284 39.4835C44.4309 39.4835 45.2435 38.6709 45.2435 37.6684C45.2435 36.6659 44.4309 35.8533 43.4284 35.8533C42.4259 35.8533 41.6133 36.6659 41.6133 37.6684C41.6133 38.6709 42.4259 39.4835 43.4284 39.4835Z" fill="#EE6C4D"/>
<path d="M15.9323 46.0718C16.9348 46.0718 17.7474 45.2591 17.7474 44.2567C17.7474 43.2542 16.9348 42.4415 15.9323 42.4415C14.9298 42.4415 14.1172 43.2542 14.1172 44.2567C14.1172 45.2591 14.9298 46.0718 15.9323 46.0718Z" fill="#EE6C4D"/>
<path d="M20.571 39.4835C21.5735 39.4835 22.3861 38.6709 22.3861 37.6684C22.3861 36.6659 21.5735 35.8533 20.571 35.8533C19.5685 35.8533 18.7559 36.6659 18.7559 37.6684C18.7559 38.6709 19.5685 39.4835 20.571 39.4835Z" fill="#EE6C4D"/>
<path d="M11.362 39.4835C12.3645 39.4835 13.1771 38.6709 13.1771 37.6684C13.1771 36.6659 12.3645 35.8533 11.362 35.8533C10.3595 35.8533 9.54688 36.6659 9.54688 37.6684C9.54688 38.6709 10.3595 39.4835 11.362 39.4835Z" fill="#EE6C4D"/>
</svg>
