<svg width="64" height="64" viewBox="0 0 64 64" fill="none" xmlns="http://www.w3.org/2000/svg">
<path d="M27.0034 12.9897C21.4823 12.9897 17.0103 17.4632 17.0103 22.9862C17.0103 28.5093 21.4823 32.9828 27.0034 32.9828C32.5246 32.9828 36.9966 28.5093 36.9966 22.9862C37.0138 17.4632 32.5246 12.9897 27.0034 12.9897ZM12.0052 23.0034C12.0052 14.7103 18.7131 8 27.0034 8C35.2938 8 42.0017 14.7103 42.0017 23.0034C42.0017 31.2966 35.2938 38.0069 27.0034 38.0069C18.7131 38.0069 12.0052 31.2794 12.0052 23.0034ZM44.0829 12.3875C45.0633 11.4067 46.6457 11.4067 47.6261 12.3875C53.4912 18.2546 53.4912 27.7522 47.6261 33.6022C46.6457 34.5829 45.0633 34.5829 44.0829 33.6022C43.1025 32.6215 43.1025 31.0385 44.0829 30.0578C47.9873 26.1521 47.9873 19.8204 44.0829 15.9147C43.1025 14.9511 43.1025 13.3682 44.0829 12.3875ZM45.8373 44.8892C46.1641 43.5471 47.5229 42.7385 48.8645 43.0654C52.184 43.8913 54.2824 46.0248 55.4864 48.4336C56.656 50.7736 57 53.3889 57 55.488C57 56.8644 55.882 57.9828 54.506 57.9828C53.13 57.9828 52.012 56.8644 52.012 55.488C52.012 53.8362 51.7368 52.0812 51.0316 50.6703C50.3609 49.3455 49.3461 48.3303 47.6605 47.9174C46.3017 47.5905 45.4933 46.2312 45.8373 44.8892ZM18.2487 48.0034C15.1011 48.0034 12.0052 51.0317 12.0052 55.5052C12.0052 56.8816 10.8872 58 9.51118 58C8.13519 58 7 56.8816 7 55.5052C7 48.9153 11.73 42.9966 18.2487 42.9966H35.741C42.2597 42.9966 46.9897 48.9153 46.9897 55.5052C46.9897 56.8816 45.8717 58 44.4957 58C43.1197 58 42.0017 56.8816 42.0017 55.5052C42.0017 51.0317 38.9057 48.0034 35.7582 48.0034H18.2487Z" fill="#EE6C4D"/>
</svg>
